<svg xmlns="http://www.w3.org/2000/svg" viewBox="0 0 100 100">
    <circle cx="50" cy="50" r="50" fill="#000000"/>
    <!-- Stylized cursive K path -->
    <path d="M 30 25 Q 32 25 33 27 L 35 45 Q 45 35 55 35 Q 58 35 58 38 Q 58 40 56 42 L 45 50 L 58 65 Q 62 70 62 73 Q 62 75 60 75 Q 58 75 55 72 L 38 52 L 35 70 Q 34 75 30 75 Q 28 75 28 72 L 28 28 Q 28 25 30 25 Z M 60 30 Q 65 28 68 32 Q 70 35 67 38 Q 65 40 62 38 Q 60 36 60 30 Z"
          fill="#FFFFFF"
          stroke="#FFFFFF"
          stroke-width="0.5"
          stroke-linecap="round"
          stroke-linejoin="round"/>
</svg>
